<?xml version="1.0" encoding="utf-8"?>
<!-- Generator: Adobe Illustrator 22.0.1, SVG Export Plug-In . SVG Version: 6.00 Build 0)  -->
<svg version="1.1" id="_x35_9904e4f-d552-4f96-882a-6a294bb87dd0"
	 xmlns="http://www.w3.org/2000/svg" xmlns:xlink="http://www.w3.org/1999/xlink" x="0px" y="0px" viewBox="0 0 1155.4 796.5"
	 style="enable-background:new 0 0 1155.4 796.5;" xml:space="preserve">
<style type="text/css">
	.st0{fill:#FEF4AF;enable-background:new    ;}
	.st1{fill:#6C63FF;}
	.st2{fill:#6345EA;enable-background:new    ;}
	.st3{fill:#3B3745;enable-background:new    ;}
	.st4{fill:#6345EA;}
	.st5{opacity:0.2;fill:#3B3745;enable-background:new    ;}
	.st6{fill:#FFFFFF;}
	.st7{fill:url(#SVGID_1_);}
	.st8{fill:#A5636D;}
	.st9{opacity:5.000000e-02;fill:#BE6F72;enable-background:new    ;}
	.st10{opacity:0.1;enable-background:new    ;}
	.st11{fill:#65617D;}
	.st12{fill:#BE6F72;}
	.st13{fill:#3D358B;}
	.st14{fill:none;}
	.st15{opacity:0.1;}
	.st16{fill:#F7CDDD;}
	.st17{fill:#F28B3C;}
	.st18{fill:#4C3E42;}
	.st19{fill:#EFC8C4;}
	.st20{fill:#727A9C;}
</style>
<title>to do list</title>
<path class="st0" d="M356.8,40.2C396,4.9,457.5-2.3,513.5,0.6c175.9,8.8,334.7,94.6,472.1,191.6c49.7,35.1,98.7,73,131,121.3
	c65.7,98.5,46.2,234.8-45.2,315.9c-31.1,27.6-68.8,48.8-107.5,67.5c-68.8,33.3-143,60.1-221.1,67.7c-55.7,5.4-112,1-167.4-6.6
	c-154.6-21.2-306.5-68-433.7-148.1C86,574.8,33.4,531.1,10.4,474.2S2.1,345.4,59.1,311.7c23.6-13.9,51.7-20.2,79.3-26.1
	c40.6-8.7,81.9-17.2,118.5-34.9c37.9-18.2,82.7-53.5,75.2-93.9C324.1,113.5,317.6,75.4,356.8,40.2z"/>
<path class="st1" d="M256.7,447.8c0,0,10.4-7.4,21.1-2.8c0,0-3,6.4-16.4,6.3L256.7,447.8z"/>
<path class="st1" d="M255.4,448.2c0,0-2.8,12.5,5.7,20.5c0,0,4.7-5.3-0.6-17.5L255.4,448.2z"/>
<path class="st1" d="M241.7,436.9c0,0,0.4-10.5,24.2-7.9c0,0,0.4,6.8-7.8,10.3C249.9,442.8,246,440.2,241.7,436.9z"/>
<path class="st2" d="M240.2,436.9c0,0-9.9,3.6-0.1,25.5c0,0,6.5-1.7,7.4-10.6S244.7,440,240.2,436.9z"/>
<path class="st2" d="M226.3,422.5c0,0-2-17.2,22.2-16.4c0,0,2.3,15.5-17.8,20.3L226.3,422.5z"/>
<path class="st2" d="M209.5,403.7c0,0,2.6-19.7,27-14.8c0,0,0.7,16.9-22.8,19.3L209.5,403.7z"/>
<path class="st2" d="M197.1,384c0,0,4.8-19.3,29-14.5c0,0-5,17.4-27.3,17.9L197.1,384z"/>
<path class="st2" d="M185.2,364.8c0,0,4.7-20,28-14.9c0,0-7,19.1-26.4,18.2L185.2,364.8z"/>
<path class="st2" d="M177.4,346.4c0,0,3.2-24.3,25-19.8c0,0-5.4,22.2-23.3,23.3L177.4,346.4z"/>
<path class="st2" d="M169.8,324.1c0,0,4.1-24.5,26.1-18.3c0,0-7.7,23.4-24.5,21.6L169.8,324.1z"/>
<path class="st2" d="M164.8,303.2c0,0,7-24.7,23.9-24.6c0,0-7.1,26-22.3,29.5L164.8,303.2z"/>
<path class="st2" d="M161.4,282.8c0,0,7.5-29.7,21.4-27.9c0,0-5.1,22.6-20.7,32.5L161.4,282.8z"/>
<path class="st2" d="M159,258.4c0,0,7.2-24.7,20.7-26.2c0,0-4.6,24.3-20.1,32.6L159,258.4z"/>
<path class="st2" d="M156.5,235.7c0,0,9.2-24.9,18.1-25.8c0,0-3.5,24.2-17.1,29.7L156.5,235.7z"/>
<path class="st2" d="M154.5,214.5c0,0,5.2-26.8,14.1-29.4c0,0-0.4,21.8-13.1,31.3L154.5,214.5z"/>
<path class="st2" d="M150.1,186.9c0,0,5.7-21.4,12.9-24.9c0,0-0.5,25-11,30L150.1,186.9z"/>
<path class="st2" d="M146.6,168.7l-2.8-37.3c0,0,14.6,27.7,4,43.8L146.6,168.7z"/>
<path class="st2" d="M134.7,132c0,0-10.8-26.9-13.2-28.3c0,0,19.8,17,18.8,39.8L134.7,132z"/>
<path class="st2" d="M225.6,422.4c0,0-17.2-1.6-15.8,22.6c0,0,15.6,1.9,19.9-18.3L225.6,422.4z"/>
<path class="st2" d="M208.7,403.1c0,0-19.8,0.7-17.3,25.4c0,0,16.8,2.3,21.4-20.9L208.7,403.1z"/>
<path class="st2" d="M196.9,385.6c0,0-18.3-7.8-29,14.5c0,0,16.9,6.4,30.7-11L196.9,385.6z"/>
<path class="st2" d="M184.8,365c0,0-18.8-8.3-28.8,13.4c0,0,19.4,5.9,30.4-10.1L184.8,365z"/>
<path class="st2" d="M177.6,346.9c0,0-18.4-16.3-31.9,1.4c0,0,18.6,13.2,32.8,2.3L177.6,346.9z"/>
<path class="st2" d="M170.8,323.4c0,0-18.5-16.6-31.9,2c0,0,20.6,13.5,32.6,1.6L170.8,323.4z"/>
<path class="st2" d="M166.6,302.5c0,0-14.6-21.1-30.6-15.7c0,0,15.1,22.4,30.6,20.8L166.6,302.5z"/>
<path class="st2" d="M161.8,282.7c0,0-14.9-26.7-27.8-21.5c0,0,10.8,20.6,28.3,26L161.8,282.7z"/>
<path class="st2" d="M159.9,257c0,0-15.1-20.9-28.3-17.8c0,0,12.5,21.3,29.9,23.9L159.9,257z"/>
<path class="st2" d="M157.9,235.1c0,0-11.9-23.6-20.9-23.5c0,0,6.2,23.7,20.3,27.6L157.9,235.1z"/>
<path class="st2" d="M154.9,214c0,0-13.2-23.9-22.4-23.6c0,0,7.1,20.6,22.1,25.8L154.9,214z"/>
<path class="st2" d="M152.1,188.2c0,0-9.9-19.8-17.6-21.8c0,0,5.5,24.4,16.8,27.2L152.1,188.2z"/>
<path class="st2" d="M145.5,168.1l-21.7-30.4c0,0,6.4,30.6,24.9,36.3L145.5,168.1z"/>
<path class="st2" d="M130.1,134.7c0,0-24.4-15.5-25.4-18.2c0,0,13,22.6,35.7,25.8L130.1,134.7z"/>
<path class="st2" d="M128.4,127.4c0,0-28.4-25.2-35.3-24.9c0,0,22.6,0.2,36,23.5L128.4,127.4z"/>
<path class="st3" d="M152,192.2l-1,0.2c-6.7-40.1-15.1-63.5-23.7-66.2l0.3-1C136.7,128,145.2,151.2,152,192.2z"/>
<path class="st3" d="M163.2,288.1l-1.5,0.2c-0.5-3.7-0.9-7.6-1.2-11.4c-2.7-33.3-6.1-63.8-9.9-86.6l0.8-1.1
	c3.8,22.9,7.9,54.3,10.6,87.6C162.4,280.6,162.8,284.4,163.2,288.1z"/>
<path class="st3" d="M285.5,465.9c-0.3-0.1-27.2-10.9-55.8-38.1c-16.7-15.9-30.9-34.4-41.8-54.7c-13.7-25.4-22.7-57-26.5-87.8
	l1.6,0.7c8.5,69.2,41.9,115.4,68,140.3c28.3,26.9,55,37.7,55.2,37.8L285.5,465.9z"/>
<path class="st4" d="M298.5,384.5c0,0,12.1-4,21,3.6c0,0-4.8,5.2-17.5,1.1L298.5,384.5z"/>
<path class="st4" d="M297.2,384.5c0,0-6.3,11.1-0.7,21.3c0,0,6-3.6,4.6-16.9L297.2,384.5z"/>
<path class="st4" d="M287.5,369.6c0,0,3.5-9.9,25.5-0.4c0,0-1.6,6.6-10.5,7.5S290.6,374,287.5,369.6z"/>
<path class="st4" d="M286.1,369.1c0,0-10.5,0.5-7.7,24.3c0,0,6.8,0.3,10.2-7.9S289.4,373.4,286.1,369.1z"/>
<path class="st4" d="M277,351.2c0,0,3.2-17,26.1-9c0,0-2.4,15.5-23,14.1L277,351.2z"/>
<path class="st4" d="M266.6,328.2c0,0,8.3-18,30.1-6.1c0,0-4.3,16.4-27.5,11.6L266.6,328.2z"/>
<path class="st4" d="M260.6,305.8c0,0,10.4-17,32-5.2c0,0-10,15.1-31.4,9L260.6,305.8z"/>
<path class="st4" d="M255,283.9c0,0,10.4-17.7,31.2-5.9c0,0-12.4,16.1-30.6,9.6L255,283.9z"/>
<path class="st4" d="M253,264c0,0,10.3-22.3,29.8-11.5c0,0-11.8,19.6-29.2,15.3L253,264z"/>
<path class="st4" d="M252.4,240.4c0,0,11.2-22.2,30.4-9.7c0,0-14.3,20-29.8,13.3L252.4,240.4z"/>
<path class="st4" d="M253.9,219.1c0,0,14-21.5,30.2-16.4c0,0-14.6,22.7-30.1,21.5L253.9,219.1z"/>
<path class="st4" d="M256.7,198.6c0,0,16-26.1,28.7-20.3c0,0-11.6,20.1-29.4,24.8L256.7,198.6z"/>
<path class="st4" d="M261.6,174.6c0,0,14.2-21.5,27.6-18.9c0,0-11.6,21.8-28.9,25.1L261.6,174.6z"/>
<path class="st4" d="M266,152.1c0,0,16.1-21,25-19.2c0,0-10.5,22.1-25.1,23.3L266,152.1z"/>
<path class="st4" d="M270.4,131.3c0,0,12.9-24,22.2-23.8c0,0-6.9,20.7-21.8,26L270.4,131.3z"/>
<path class="st4" d="M274.4,103.6c0,0,11.9-18.7,19.7-20c0,0-7.9,23.7-19.4,25.4L274.4,103.6z"/>
<path class="st4" d="M276.5,85.2l8.5-36.4c0,0,5.7,30.8-9.2,43L276.5,85.2z"/>
<path class="st4" d="M276,46.7c0,0-2.3-28.9-4.2-31c0,0,13.9,22.1,6.1,43.6L276,46.7z"/>
<path class="st4" d="M276.4,351c0,0-16-6.6-21.8,16.9c0,0,14.3,6.5,24.4-11.6L276.4,351z"/>
<path class="st4" d="M266,327.4c0,0-19.1-5.2-24.1,19.2c0,0,15.3,7.2,26.6-13.6L266,327.4z"/>
<path class="st4" d="M260,307.3c0,0-15.2-12.9-32,5.2c0,0,14.2,11.1,32.6-1.4L260,307.3z"/>
<path class="st4" d="M254.6,284c0,0-15.5-13.5-31.5,4.2c0,0,16.8,11.4,32-0.6L254.6,284z"/>
<path class="st4" d="M253.1,264.6c0,0-12.7-21-30.9-8.1c0,0,13.9,18.2,30.7,12L253.1,264.6z"/>
<path class="st4" d="M253.5,240.1c0,0-12.7-21.4-31-7.5c0,0,15.6,19,30.7,11.2L253.5,240.1z"/>
<path class="st4" d="M255.8,218.9c0,0-7.6-24.5-24.5-24c0,0,7.8,25.9,23.1,28.9L255.8,218.9z"/>
<path class="st4" d="M257.1,198.6c0,0-6.3-29.9-20.2-28.8c0,0,4.2,22.8,19.3,33.3L257.1,198.6z"/>
<path class="st4" d="M262.9,173.5c0,0-8.2-24.4-21.7-25.4c0,0,5.6,24.1,21.4,31.8L262.9,173.5z"/>
<path class="st4" d="M267.5,152c0,0-4.4-26.1-13-28.7c0,0-1.1,24.5,11.2,32.4L267.5,152z"/>
<path class="st4" d="M271,130.9c0,0-5.5-26.8-14.4-29.2c0,0,0.6,21.8,13.4,31.2L271,130.9z"/>
<path class="st4" d="M275.9,105.6c0,0-3.6-21.9-10.3-26.1c0,0-2,24.9,8,31L275.9,105.6z"/>
<path class="st4" d="M275.6,84.2l-11.7-35.5c0,0-3,31.1,13,42.1L275.6,84.2z"/>
<path class="st4" d="M270.8,47.9c0,0-18.7-22.1-18.9-24.9c0,0,5.7,25.4,26.4,35.2L270.8,47.9z"/>
<path class="st4" d="M271.4,40.4c0,0-19.6-32.5-26.3-34.3c0,0,21.5,6.9,27.3,33.2L271.4,40.4z"/>
<path class="st3" d="M274.6,109.2l-1-0.1c5.5-40.2,4.5-65.2-2.9-70.2l0.6-0.8C279.2,43.4,280.3,68.1,274.6,109.2z"/>
<path class="st3" d="M256.8,204.2l-1.5-0.3c0.7-3.7,1.4-7.5,2.3-11.2c7.3-32.6,13.1-62.7,16.3-85.6l1.1-0.8
	c-3.2,23-8.6,54.1-15.9,86.8C258.3,196.7,257.5,200.5,256.8,204.2z"/>
<path class="st3" d="M320.7,410.3c-0.2-0.2-22.7-18.5-42-53c-11.3-20.2-19.2-42-23.7-64.7c-5.5-28.3-4.7-61.1,0.8-91.7l1.3,1.1
	c-12.5,68.6,5.7,122.7,23.2,154.2c19,34.1,41.3,52.3,41.5,52.5L320.7,410.3z"/>
<path class="st5" d="M714.1,701l-100.3,38.8l-146.6,56.7c-5.5-10.3-13.7-24.3-23.8-41c-34.7-57.5-92.2-147.1-143.3-225.7
	c-57.6-88.6-107.2-163.5-107.2-163.5l35.9-10.4L522,270.8L714.1,701z"/>
<path class="st6" d="M716.1,694l-100.3,38.8l-146.6,56.7c-5.5-10.3-13.7-24.3-23.8-41c-34.7-57.5-92.2-147.1-143.3-225.7
	c-57.6-88.6-107.2-163.5-107.2-163.5l35.9-10.4L524,263.8L716.1,694z"/>
<path class="st5" d="M787.2,661.1c-36.7,1.8-79.1,1.6-121.9-3.5c-46.2-5.4-92.7-16.6-132.6-37.2c-33.3-17.2-61.8-35.8-86.7-58.2
	C381.5,504.1,341.5,421,305.6,273.8L612.9,221L787.2,661.1z"/>
<path class="st6" d="M901.5,635.8c0,0-114.9,22.5-231.8,8.7c-46.2-5.5-92.7-16.6-132.6-37.2c-33.3-17.2-61.8-35.8-86.7-58.2
	c-80-72-122.2-182.2-165.8-404.9c0,0,191,46.1,379.7-54.9C664.5,89.3,728.1,486.6,901.5,635.8z"/>
<path class="st5" d="M669.8,644.5c-46.2-5.5-92.7-16.6-132.6-37.2c-33.3-17.2-61.8-35.8-86.7-58.2c68.1-5.5,77.9-42.8,77.9-42.8
	C578.9,586.5,669.8,644.5,669.8,644.5z"/>
<path class="st2" d="M383.6,225.9c0,0,102.6,11.7,198.6-42.2l6.6,21.1c0,0-91.9,45.8-205.2,45.8V225.9z"/>
<path class="st3" d="M383.6,330.2c0,0,102-8.2,215.6-63.1l3.8,8.8c0,0-41.8,52.6-219.4,66.3V330.2z"/>
<path class="st3" d="M395.6,370.9c0,0,102-8.2,215.5-63.1l3.8,8.8c0,0-41.8,52.6-219.4,66.4V370.9z"/>
<path class="st3" d="M406.7,414.8c0,0,102-8.2,215.5-63.1l3.8,8.8c0,0-41.8,52.6-219.4,66.4V414.8z"/>
<path class="st3" d="M419.8,452.4c0,0,102-8.2,215.5-63.1l3.8,8.8c0,0-41.8,52.6-219.4,66.4V452.4z"/>
<path class="st3" d="M431.9,493.1c0,0,102-8.2,215.6-63.1l3.8,8.8c0,0-41.8,52.6-219.4,66.4L431.9,493.1z"/>
<rect x="620" y="243.8" transform="matrix(0.9466 -0.3223 0.3223 0.9466 -49.5447 218.4749)" class="st0" width="30.2" height="30.1"/>
<rect x="636.2" y="286.3" transform="matrix(0.9466 -0.3223 0.3223 0.9466 -62.3622 225.9729)" class="st0" width="30.2" height="30.1"/>
<rect x="662.3" y="368" transform="matrix(0.9466 -0.3223 0.3223 0.9466 -87.3024 238.7201)" class="st0" width="30.2" height="30.1"/>
<rect x="677.2" y="411.8" transform="matrix(0.9466 -0.3223 0.3223 0.9466 -100.6367 245.8725)" class="st0" width="30.2" height="30.1"/>
<rect x="649.5" y="330.4" transform="matrix(0.9466 -0.3223 0.3223 0.9466 -75.871 232.5926)" class="st0" width="30.2" height="30.1"/>
<linearGradient id="SVGID_1_" gradientUnits="userSpaceOnUse" x1="880.0945" y1="37.5251" x2="880.0945" y2="520.1591" gradientTransform="matrix(1 0 0 -1 -22.3 743.3109)">
	<stop  offset="0" style="stop-color:#808080;stop-opacity:0.25"/>
	<stop  offset="0.54" style="stop-color:#808080;stop-opacity:0.12"/>
	<stop  offset="1" style="stop-color:#808080;stop-opacity:0.1"/>
</linearGradient>
<path class="st7" d="M972.4,449.6l-1.1-1c2.8-0.6,5.4-0.8,5.4-0.8s-9.5-34.3-25.4-45.7c-7.9-5.6-14.5-15.1-19.1-23.1
	c-8.5-14.6-18-28.6-28.5-41.8l-2.9-3.6l-1.2-1.6c1.7-2.6,3.8-5.1,3.6-8.1c0,0,0,0,0-0.1c0-0.2,0-0.3,0-0.5c0-0.4-0.1-0.7-0.2-1.1
	l-0.1,0.2c-1.3-3.9-6.5-5.6-10.4-7.8c-9-5.1-12.8-16.1-14.8-26.5c-1.5-8-2.7-17-9-22.1c-4-3.3-9.4-4.4-13.5-7.7
	c-3.8-3.1-6-7.9-8.3-12.2c-4-7.2-9.3-14-16.2-18.3s-15.8-6-23.5-3.1c-2.9,1.1-5.6,2.9-8.5,4.1c-7.2,3-15.5,2.6-22.6,5.8
	c-8.8,3.9-14.5,12.5-19.7,20.7c-2.7,4.2-6.9,10.4-9.3,16.7c0-0.2,0-0.4,0-0.6c-1.2,2.7-1.8,5.7-1.9,8.7c0,1.3,0.1,2.5,0.4,3.8
	c1.1,4,4.3,6.2,8.1,7.8c0.2,1.3,0.5,2.5,0.9,3.8c3.5,11.5,12.4,20.7,23.9,24.4c0.3,0.1,0.7,0.2,1,0.3c0.3,0.8,0.7,1.5,1.2,2.2
	c3.2,4,9.6,2.9,13.8,0c0.2-0.1,0.3-0.2,0.5-0.4c0,0.6,0.1,1.1,0.2,1.7c0.1,0.5,0.2,1,0.3,1.4c3.8,20.2,13.3,31.1,13.3,31.1
	s0.9,1.3,2.3,3.6c-0.8,11.1,4.3,21.3,10.2,29.2c-5.1,2.9-16,8.7-22.8,8.2c0,0-24.8,3.2-27.7,1.6c-0.4-0.2-0.8,0.1-1.1,0.8
	c-6.8-4.2-28.7-16.2-30.6-0.8c-1.7,14,18.2,15.8,27.7,15.9c-0.4,4.1-0.7,7.4-0.7,7.4l40.8-2.8l21.2-3.1c-2.3,3.1-5,5.9-7.6,7.2
	c0,0-19.2,15.5-22.5,15.7c-0.5,0-0.6,0.5-0.5,1.2c-8.1,0-33.2,1.2-26.2,15.2c6.3,12.7,24.2,3.9,32.2-0.9c1.9,3.7,3.5,6.6,3.5,6.6
	l32.9-23.5l7.1-6c2.4-0.1,4.8-0.6,7.1-1.4c0,0.1,0.1,0.2,0.1,0.3c0.3,0.7,0.4,1.5,0.6,2.3c2,11.5-4.7,38.3-4.7,38.3
	s-14.8,37.7-7.7,42.8c7.1,5.1,1.8,26.8,1.8,26.8c1.2,2.1,2.7,4.1,4.3,5.9l0,0c0.8,0.9,1.6,1.7,2.5,2.4c-0.3,0.9-0.6,1.8-0.8,2.8
	c-1.1,4.6-0.7,9.5,1.2,13.8c4.9,11.8,1.9,29,1.9,29l-9.6,64.7c-4.6-0.7-10.5-1.3-12.8,0c-3.4,1.9-2.3,11.5,5.6,15.7
	c-2.4,1.8-5.2,3.1-8.1,3.7c-7,1.6-11.9,2.6-15.2,3.2c-0.2,0-16.8-3.7-21.1-1.2s-2.2,15.8,9.9,19.1c11.9,3.2,56.1,7.9,68.8,6l0.8-0.1
	c10.8-2.1,1.3-16.4,0.1-18.1c-0.1-0.6-0.2-1.2-0.2-1.8c-0.2-1.5-0.3-3.2-0.4-5c12.1,1.1,24,1.7,29.5,0.8c0.3,0,0.5-0.1,0.7-0.1
	c9.6-1.9,1.2-14.5,0.1-16c0-0.4-0.1-0.8-0.2-1.2v-0.1c0-0.3-0.1-0.6-0.1-0.9s0-0.5-0.1-0.8s0-0.5-0.1-0.7c0-0.5-0.1-1-0.1-1.5
	c0-0.2,0-0.4,0-0.7c0-0.4,0-0.8-0.1-1.2c0-0.2,0-0.4,0-0.7c0-0.6,0-1.2-0.1-1.8c0-0.2,0-0.3,0-0.5c0-0.5,0-1,0-1.5
	c0-0.2,0-0.5,0-0.7c0-0.5,0-1.1,0-1.6c0-0.2,0-0.3,0-0.5c0-0.7,0.1-1.4,0.1-2l0.1-0.7c0-0.5,0.1-1,0.1-1.5c0-0.2,0-0.5,0.1-0.8
	c0.1-0.7,0.2-1.4,0.3-2.1c0-0.2,0.1-0.4,0.1-0.6c0.1-0.5,0.2-1.1,0.3-1.6c0-0.3,0.1-0.5,0.2-0.8c0.1-0.6,0.3-1.2,0.4-1.7
	c0-0.2,0.1-0.3,0.1-0.5c0.2-0.7,0.4-1.4,0.6-2.1c0.1-0.2,0.2-0.5,0.2-0.7c0.2-0.5,0.3-1,0.5-1.5l0.2-0.6c0.3-0.7,0.6-1.3,0.9-2
	c0.1-0.2,0.2-0.3,0.3-0.5c0.2-0.5,0.5-1,0.8-1.5l0.3-0.6c0.4-0.6,0.8-1.3,1.2-1.9c11-15.7,13.9-45.9,13.6-52.5s1.3-20.2,3.3-22.2
	c1.3-1.3,9-12,13.6-20.1c0.8-1.5,1.5-2.9,2.1-4.1c3.3-1.1,5.4-2,5.4-2l0,0l0,0c-1.1-4.2-1.7-8.5-1.6-12.9
	c0.1-8.5,2.4-19.7,12.1-28.8c14.3-13.4,16.2-26.8,16.4-31.9c0-0.4,0-0.7,0-1C972.5,450,972.4,449.6,972.4,449.6z"/>
<path class="st8" d="M934.4,533.4c-3.9,6.9-8.2,13.6-13,19.9c-1.9,2-3.4,15.5-3.1,22s-2.5,36.4-13,51.9s-5.1,42.3-5.1,42.3
	l-16.8,5.9h-20.2l-13.9-4.1l-3.7-10.1c0,0,4.9-0.8,17-3.6c6.9-1.4,12-7.2,12.5-14.3l8.5-59.4c0,0,2.5-15-1.6-25.4
	c-2.4-5.9-1.9-12.6,1.4-18.1l0.3-0.4c0,0,13.1-10.4,26.5-16.9c11.8-5.7,23.9-8.4,27.3,1.7C938,526.1,936.5,529.4,934.4,533.4z"/>
<path class="st9" d="M934.4,533.4c-3.9,6.9-8.2,13.6-13,19.9c-1.9,2-3.4,15.5-3.1,22s-2.5,36.4-13,51.9c-7.4,10.9-6.9,27.5-6,36.3
	c0.4,3.7,0.9,6,0.9,6l-16.8,5.9h-20.1l-13.9-4.1l-3.7-10.1c0,0,1.2-0.2,4-0.7s7-1.5,13.1-2.9c6.9-1.4,12-7.3,12.5-14.3l8.5-59.4
	c0,0,2.5-15-1.6-25.4c-2.4-5.9-1.9-12.6,1.4-18.1l0.3-0.4c0,0,13.1-10.4,26.5-16.9c11.8-5.7,23.9-8.4,27.3,1.7
	C938,526.1,936.5,529.4,934.4,533.4z"/>
<path class="st10" d="M900.2,669.5l-16.8,5.9h-20.2l-13.9-4.2l-3.7-10.1c0,0,1.2-0.2,4-0.7c-0.4,3.8,2.1,7.3,5.8,8.2l7.9,0.3
	c1.1,0,2.2,0.1,3.3,0.1c11.1,0,22.1-1.8,32.6-5.4C899.7,667.2,900.2,669.5,900.2,669.5z"/>
<path class="st11" d="M863.4,670.5l-7.9-0.3c0,0-7.4-1.6-5.6-9.9c0,0-14.2-3.2-17.8-1.1s-1.9,13.9,8.4,16.8
	c10,2.8,47.5,6.9,58.2,5.2l0.7-0.1c9.8-2,0-16,0-16l0,0C887.8,669.1,875.6,670.9,863.4,670.5z"/>
<path class="st12" d="M912,535.7c-0.5,1.1-1.1,2.2-1.8,3.3c-5,9-12.9,20.3-14.3,21.8c-2.1,2.3-3.8,17.5-3.5,24.9
	s-2.8,41.1-14.7,58.6c-6.1,9-7.4,21.2-7.3,31.1c0,3.3,0.2,6.7,0.6,10c0.4,4.1,1,6.6,1,6.6l-18.9,6.6h-22.8l-15.7-4.7l-4.1-11.4
	c0,0,1.4-0.2,4.5-0.8s7.9-1.6,14.7-3.2c7.8-1.6,13.5-8.2,14.1-16.1l9.6-67.1c0,0,2.8-17-1.8-28.7c-1.8-4.3-2.1-9.1-1.1-13.7
	c0.6-2.6,1.6-5,3-7.2c0,0,3.7-2.9,9.2-6.7c2.4-1.7,5.3-3.5,8.3-5.4c13.4-8.3,30.9-16.7,39.3-10.6c1.9,1.4,3.2,3.4,3.9,5.6
	C914.5,529.8,913.6,532.4,912,535.7z"/>
<path class="st10" d="M871.9,692l-18.9,6.6h-22.7l-15.7-4.7l-4.1-11.4c0,0,1.4-0.2,4.5-0.8c-0.4,2.8,0.6,5.5,2.7,7.4
	c1.6,1.3,3.6,2.1,5.6,2.1l7.2,0.2c1.2,0,2.5,0.1,3.8,0.1c12.5,0,24.9-2.1,36.8-6.1C871.4,689.5,871.9,692,871.9,692z"/>
<path class="st11" d="M830.4,693.2l-7.2-0.2c-2.1,0-4.1-0.8-5.7-2.1c-1.8-1.6-3.4-4.4-2.4-9.1c0,0-16-3.6-20.1-1.2
	s-2.1,15.7,9.5,18.9c11.3,3.2,53.6,7.8,65.7,5.9l0.8-0.1c11-2.3,0-18.1,0-18.1l0,0C858,691.6,844.2,693.6,830.4,693.2z"/>
<path class="st10" d="M934.4,533.4c-6.8,2.4-16.9,5.6-22.4,5.7c-0.6,0-1.1,0-1.7-0.1l0,0c-3.9-0.5-15.8,0.3-26.7,1.3
	c-4.4,0.4-8.6,0.8-12.1,1.2c-5.2,0.5-8.8,0.9-8.8,0.9V539c2.4-1.7,5.3-3.5,8.3-5.4c13.4-8.3,30.9-16.7,39.3-10.6
	c11.8-5.7,23.9-8.4,27.3,1.7C938,526.1,936.5,529.4,934.4,533.4z"/>
<path class="st13" d="M967.3,454.6c-0.2,5.1-2.1,18.2-15.7,31.5c-17.4,17-10,41.3-10,41.3s-20.7,8.1-29.6,8.3c-0.6,0-1.1,0-1.7-0.1
	c-5.4-0.8-26.6,1.2-38.9,2.5c-5.2,0.5-8.8,0.9-8.8,0.9v-72l95.9-23.3l8.7,8.6C967.3,453.1,967.3,453.8,967.3,454.6z"/>
<path class="st14" d="M933.2,525.1"/>
<g class="st15">
	<path d="M864.2,538.2l-1.6,0.2v0.8c0,0,3.6-0.4,8.8-0.9c8.8-0.9,22.2-2.1,31.1-2.5C896.3,535.1,876,537,864.2,538.2z"/>
	<path d="M967.2,452.5l-8.7-8.7l-5.8,1.5l7.3,7.2c0,0.7,0,1.4,0,2.2c-0.2,5.1-2.1,18.2-15.7,31.5c-17.4,16.9-10,41.3-10,41.3
		s-17.1,6.7-26.9,8.1c0.9,0,1.9,0,2.8,0.2c0.6,0.1,1.1,0.1,1.7,0.1c8.9-0.2,29.6-8.3,29.6-8.3s-7.4-24.3,10-41.3
		c13.6-13.3,15.5-26.5,15.7-31.5C967.3,453.9,967.3,453.2,967.2,452.5z"/>
</g>
<path class="st12" d="M775.6,403.7c0,0-29-20.1-31.1-2s31.1,15.5,31.1,15.5V403.7z"/>
<path class="st16" d="M825.6,390.4c0,0-15.7,10.4-24.4,9.7c0,0-23.7,3.2-26.5,1.6s-4.4,23-4.4,23l39-2.8l25-3.8
	c0,0,12.5-7.6,12.5-14.2S825.6,390.4,825.6,390.4z"/>
<path class="st17" d="M825.6,390.4c0,0-15.7,10.4-24.4,9.7c0,0-23.7,3.2-26.5,1.6s-4.4,23-4.4,23l39-2.8l25-3.8
	c0,0,12.5-7.6,12.5-14.2S825.6,390.4,825.6,390.4z"/>
<path class="st12" d="M802.6,442.7c0,0-35.3-1.5-27.4,15c7.9,16.5,34.6-3.5,34.6-3.5L802.6,442.7z"/>
<path class="st13" d="M838,407.7c0,0-28.6-21.4-24.6-47.4s24.6,19.9,24.6,19.9V407.7z"/>
<path class="st12" d="M830.1,289.6c0,9.4-3.7,18.4-10.2,25.1c-1.6,1.7-3.3,3.1-5.2,4.5c-3.6,2.5-7.6,4.4-11.9,5.5
	c-1.7,0.4-3.4,0.7-5.1,0.9c-1.2,0.1-2.5,0.2-3.8,0.2c-4.1,0-8.1-0.7-11.9-2c-18.8-6.6-28.8-27.2-22.2-46s27.2-28.8,46-22.2
	C820.4,260.6,830.1,274.3,830.1,289.6L830.1,289.6z"/>
<path class="st10" d="M967.3,454.6c-3.2,0.6-7.2,1.7-7.2,3.4c0,2.8-45.2,18.1-45.2,18.1s1.7,3.9-2.8,10.7s-41.2,45.7-41.2,45.7
	l0.1,1.2l0.5,4.5l2.2,21.5c0,0-14.1-5.1-18.6-4.5c-1.5,0.2-3-0.8-4.5-2.1c0.6-2.6,1.6-5,3-7.2c0,0,3.7-2.9,9.2-6.7v-72l95.9-23.3
	l8.7,8.6C967.3,453.1,967.3,453.9,967.3,454.6z"/>
<path class="st17" d="M971.3,450.6c0,0-11.3,1.1-11.3,4s-45.2,18.1-45.2,18.1s1.7,3.9-2.8,10.7s-41.2,45.7-41.2,45.7l2.8,27.1
	c0,0-14.1-5.1-18.6-4.5c-2,0.2-4.2-1.6-6.1-3.8c-1.5-1.8-2.9-3.8-4.1-5.8c0,0,5.1-21.5-1.7-26.5c-6.8-5.1,7.3-42.3,7.3-42.3
	s6.4-26.5,4.5-37.9c-0.1-0.8-0.3-1.5-0.5-2.2c0-0.1,0-0.2-0.1-0.2c-4-10.9-47.4-102-47.4-102c0-2.6,0.2-5.2,0.5-7.7
	c0.1-0.7,0.2-1.5,0.3-2.2c0.2-1.3,0.5-2.7,0.9-4c0.2-0.8,0.5-1.7,0.8-2.5c1.3-3.4,3.4-6.1,6.5-6.1c0,0,3.4-3.8,11.3-4.8
	c5.8-0.8,14.1,0,25.4,4.8c26.5,11.3,32.8,11.9,32.8,11.9l13.3,17.5l2.7,3.6c10,13.1,19.1,26.9,27.2,41.3c4.4,8,10.7,17.3,18.3,22.9
	C962.3,416.7,971.3,450.6,971.3,450.6z"/>
<path class="st10" d="M872.4,385.3c0,0,37.7,9.3,52.3,32.8L872.4,385.3z"/>
<path class="st10" d="M884,426.6c0,0,7.1,47.9,5.2,51.5S884,426.6,884,426.6z"/>
<path class="st10" d="M881.5,451.2c-2.7,3.6-13.9,31.3-13.9,31.3l3.2,46.6l2.8,27.1c0,0-14.1-5.1-18.6-4.5c-2,0.2-4.3-1.6-6.1-3.8
	c2.9-15.9,9.2-49.1,10.3-49.7c1.5-0.8,9.1-27.5,9.5-35s11-24.1,11-24.1S884.2,447.6,881.5,451.2z"/>
<path class="st10" d="M870.8,405.4c-0.7,2.1-1.8,14.4-1.8,14.4c-0.8,10.8-9,14.4-14,15.5c-0.1-0.8-0.3-1.5-0.5-2.2
	C851,423.5,807,330.9,807,330.9c0-4.7,0.6-9.4,1.8-13.9c9.6-2.8,24.8,1.5,24.8,1.5c4.4-0.6,18.7,27.9,18.7,27.9s9.5,21.8,10.6,24.8
	s0,7.8,0.4,9.5s4.9,3.2,5.5,5.5s0.2,7,0.6,7.8S871.5,403.3,870.8,405.4z"/>
<path class="st17" d="M867.4,403.7c-0.7,2.1-1.8,14.4-1.8,14.4c-0.6,9-6.4,13-11.3,14.7c-2.2,0.8-4.5,1.2-6.8,1.4l-6.8,5.9
	l-31.4,23.1c0,0-11.7-21.7-8.5-21.8s21.5-15.5,21.5-15.5c5.6-3,11.2-13,13.8-18.1c-0.2-0.6-0.3-1.2-0.3-1.9
	c-1.1-9.6-24.8-46.3-24.8-46.3s-9.2-10.8-12.7-30.8c-0.1-0.5-0.2-0.9-0.3-1.4c-0.1-0.6-0.2-1.3-0.2-1.9c-0.4-7.7,5.2-10.5,11.8-11.1
	l0,0c3.5-0.3,7-0.2,10.4,0.3c3.4,0.4,6.8,1.1,10.2,2c2.8-0.4,9.8,11.4,14.4,19.8l0,0c2.5,4.5,4.2,8.1,4.2,8.1s9.5,21.8,10.6,24.8
	s0,7.9,0.4,9.5s4.9,3.2,5.5,5.5s0.2,7,0.6,7.8S868.1,401.6,867.4,403.7z"/>
<path class="st10" d="M903.9,354.9c-6,6.1-15.7,6.1-23.5,3s-14.4-8.8-21.6-13.2c-4.7-2.9-9.6-5.2-14.2-8.1l0,0
	c-0.7-0.4-1.3-0.9-2-1.3c-5.3-3.8-9.9-8.6-15.4-12c-3.7-2.5-8-3.8-12.4-4c-2,0-4.1,0.4-5.9,1.2c-0.3,0.1-0.7,0.3-1,0.5
	c-1.8,1-3.5,2.3-5,3.8c-1.6,1.4-3,2.9-4.7,4.2c-0.1-0.5-0.2-0.9-0.3-1.4c-0.1-0.6-0.2-1.3-0.2-1.9c-1.2,0.1-2.5,0.2-3.8,0.2
	c-4.1,0-8.1-0.7-11.9-2c0-0.1,0-0.3-0.1-0.5c-1.3-7.1-3.8-14.7-9.5-18.7c-3.3-2.3-8.6-3.3-13.2-5c-5.5-19.2,5.6-39.2,24.8-44.7
	c19.2-5.5,39.2,5.6,44.7,24.8c2.3,7.9,1.8,16.3-1.4,23.9c5.8-0.8,14.1,0,25.4,4.8c26.5,11.3,32.8,11.9,32.8,11.9l13.3,17.5
	c-1.4,2.2-3.1,4.4-3.2,6.9C895.3,349.3,899.9,352.6,903.9,354.9z"/>
<path class="st18" d="M772.5,301.2c5.7,4,8.2,11.5,9.5,18.6c0.4,2.2,0.8,4.6,2.2,6.3c3,3.9,9.2,2.8,13.1,0s7.1-7.1,11.5-9.1
	c5.9-2.7,12.8-0.7,18.3,2.7s10.1,8.3,15.4,12c5.2,3.6,10.9,6.2,16.2,9.5c7.2,4.4,13.8,10.1,21.6,13.2s17.5,3.1,23.5-3
	c-4-2.2-8.6-5.5-8.3-10.3s5.8-8.3,5.5-13.2s-6.1-6.8-10.2-9.2c-8.6-5-12.3-16-14.1-26.1c-1.4-7.9-2.6-16.8-8.5-21.9
	c-3.8-3.3-9-4.4-12.9-7.6c-3.7-3.1-5.7-7.8-8-12.1c-3.8-7.2-8.9-13.8-15.5-18.1s-15.1-6-22.4-3.1c-2.8,1.1-5.3,2.8-8.1,4
	c-6.9,3-14.8,2.6-21.6,5.7c-8.4,3.9-13.8,12.4-18.8,20.5c-4.2,6.9-12.6,19.1-10.2,28.1C753.1,297.4,766.2,296.9,772.5,301.2z"/>
<g class="st15">
	<path d="M901.1,327.5c0-0.4-0.1-0.7-0.2-1.1c-1.5,2.4-3.4,4.7-3.6,7.5c0,0.6,0,1.3,0.2,1.9C899.1,333.1,901.3,330.6,901.1,327.5z"
		/>
	<path d="M882.1,347.2c-7.8-3.1-14.4-8.8-21.6-13.2c-5.4-3.3-11.1-5.9-16.3-9.5c-5.3-3.8-9.9-8.6-15.4-12s-12.4-5.4-18.3-2.7
		c-4.4,2-7.5,6.2-11.5,9.1s-10.1,4-13.1,0c-1.4-1.8-1.8-4.1-2.2-6.3c-1.3-7.1-3.8-14.6-9.5-18.6c-6.2-4.4-19.4-3.9-21.8-13
		c-0.4-1.6-0.5-3.3-0.3-5c-1.5,4.1-2.3,8.2-1.4,11.8c2.4,9.2,15.6,8.7,21.8,13c5.7,4,8.2,11.5,9.5,18.6c0.4,2.2,0.8,4.6,2.2,6.3
		c3,3.9,9.2,2.8,13.1,0s7.1-7.1,11.5-9.1c5.9-2.6,12.8-0.7,18.3,2.7s10.1,8.3,15.4,12c5.2,3.6,10.9,6.2,16.2,9.5
		c7.2,4.4,13.8,10.1,21.6,13.2s17.5,3.1,23.5-3c-1.5-0.8-3-1.8-4.4-2.9C894.1,350,887.6,349.4,882.1,347.2z"/>
</g>
<path class="st13" d="M705.1,415.6l80-29.9c3.9-1.5,8.3,0.5,9.8,4.4c0,0,0,0,0,0l0,0c1.5,3.9-0.5,8.3-4.5,9.8c0,0,0,0,0,0l-80,29.9
	l-17.1-1.7L705.1,415.6z"/>
<path class="st13" d="M792.5,387.8L792.5,387.8c1.5,3.9-0.5,8.3-4.5,9.8l-80,29.9l-12.9-1.3l-1.8,2l17.1,1.7l80-29.9
	c3.9-1.5,5.9-5.9,4.5-9.8v0l0,0c-0.6-1.6-1.7-2.9-3.1-3.8C792.1,386.8,792.3,387.3,792.5,387.8z"/>
<polygon class="st19" points="705.1,415.6 710.5,429.8 696.4,428.4 693.3,428.1 697.5,423.7 "/>
<path class="st20" d="M697.5,423.7c0.3,0.2,0.6,0.5,0.8,0.9c0.3,0.4,0.3,1,0,1.4c-0.2,0.2-0.5,0.4-0.8,0.5c-0.7,0.4-1.1,1.1-1.1,1.9
	l-3.1-0.3L697.5,423.7z"/>
<path class="st17" d="M635.3,261.1l-13.5-6.6c-0.8-0.4-1.1-1.4-0.8-2.2c0,0,0,0,0,0l1.4-2.9c0.4-0.8,1.4-1.1,2.2-0.8c0,0,0,0,0,0
	l9.1,4.4l9.5-19.5c0.4-0.8,1.4-1.1,2.2-0.8l2.9,1.4c0.8,0.4,1.1,1.4,0.8,2.2c0,0,0,0,0,0l-11.6,23.9
	C637.1,261.1,636.1,261.5,635.3,261.1C635.3,261.1,635.3,261.1,635.3,261.1z"/>
<path class="st17" d="M664.8,345.2l-13.5-6.6c-0.8-0.4-1.1-1.4-0.8-2.2c0,0,0,0,0,0l1.4-2.9c0.4-0.8,1.4-1.1,2.2-0.8l9.1,4.4
	l9.5-19.5c0.4-0.8,1.4-1.1,2.2-0.8l2.9,1.4c0.8,0.4,1.2,1.4,0.8,2.2c0,0,0,0,0,0l-11.6,23.9C666.5,345.3,665.6,345.6,664.8,345.2
	L664.8,345.2z"/>
<path class="st17" d="M651.5,303.8l-13.5-6.6c-0.8-0.4-1.1-1.4-0.8-2.2l1.4-2.9c0.4-0.8,1.4-1.1,2.2-0.8c0,0,0,0,0,0l9.1,4.4
	l9.5-19.5c0.4-0.8,1.4-1.1,2.2-0.8c0,0,0,0,0,0l2.9,1.4c0.8,0.4,1.1,1.4,0.8,2.2L653.7,303C653.3,303.8,652.3,304.1,651.5,303.8
	C651.5,303.8,651.5,303.8,651.5,303.8L651.5,303.8z"/>
<path class="st17" d="M677.6,383.2l-13.5-6.6c-0.8-0.4-1.1-1.4-0.8-2.2c0,0,0,0,0,0l1.4-2.9c0.4-0.8,1.4-1.1,2.2-0.8c0,0,0,0,0,0
	l9.1,4.4l9.5-19.5c0.4-0.8,1.4-1.1,2.2-0.8l2.9,1.4c0.8,0.4,1.1,1.4,0.8,2.2c0,0,0,0,0,0l-11.6,23.9
	C679.3,383.3,678.4,383.6,677.6,383.2z"/>
</svg>
