<?xml version="1.0" encoding="utf-8"?>
<!-- Generator: Adobe Illustrator 22.0.1, SVG Export Plug-In . SVG Version: 6.00 Build 0)  -->
<svg version="1.1" id="e613b765-a21b-4502-9325-e6e5b4d66d88"
	 xmlns="http://www.w3.org/2000/svg" xmlns:xlink="http://www.w3.org/1999/xlink" x="0px" y="0px" viewBox="0 0 929.5 793.1"
	 style="enable-background:new 0 0 929.5 793.1;" xml:space="preserve">
<style type="text/css">
	.st0{fill:#F28B3C;}
	.st1{fill:#57B894;}
	.st2{fill:#F2F2F2;}
	.st3{fill:#424AAB;}
	.st4{opacity:0.3;fill:#6345EA;enable-background:new    ;}
	.st5{opacity:0.3;fill:#6C63FF;enable-background:new    ;}
	.st6{fill:#E6E6E6;}
	.st7{fill:#3D358B;}
	.st8{fill:#3B3745;}
	.st9{fill:#FEF4AF;}
	.st10{fill:#E3E8F4;}
	.st11{fill:#FBBEBE;}
	.st12{opacity:0.1;fill:#F6BDBE;enable-background:new    ;}
	.st13{fill:#2F2E41;}
	.st14{fill:#65617D;}
	.st15{fill:#F6BDBE;}
</style>
<title>folder</title>
<path class="st0" d="M837.2,441.1c-0.2,11.8-0.7,25.1-1.9,39.1l34.1-42.5l0.2,0.7c-2.8-9.6-6.9-18.7-12.3-27.2l0.3,0.6L837.2,441.1z
	"/>
<path class="st0" d="M837.3,439l19.8-28.4c-5.7-8.6-12.5-15.2-20.3-19.3c-0.4-0.2-0.8-0.4-1.2-0.6
	C835.9,393.9,837.5,412.7,837.3,439z"/>
<path class="st0" d="M873.7,521.5c0.8-5,1.5-9.9,2-14.8L824.2,547l-0.1-0.4c-0.8,2.9-1.6,5.8-2.4,8.6l51.8-34.6L873.7,521.5z"/>
<path class="st0" d="M830.1,519.9l46-42.6l0.2,0.7c-0.6-13.2-2.7-26.3-6.4-38.9l-34.7,43.3C833.9,495.4,832.3,507.9,830.1,519.9z"/>
<path class="st0" d="M834.3,481.6l-61.5-61.2l0.3-0.7c-5,8-9.2,16.4-12.5,25.2l70,66.4C832.2,501,833.4,490.9,834.3,481.6z"/>
<path class="st0" d="M829,520.6c0.5-2.5,0.9-5.1,1.3-7.6L760,446.4l0.3-0.8c-1.2,3.1-2.3,6.3-3.3,9.6l0.3-0.8L829,520.6z"/>
<path class="st0" d="M824.6,545l51-40l0.1,0.8c0.8-8.9,1-17.9,0.6-26.9L829.7,522C828.2,530,826.5,537.6,824.6,545z"/>
<path class="st0" d="M752.1,517.9l57.6,66.8c3.9-8.8,7.3-17.8,10.1-26.9l-69.4-64.9c-0.2,8.6,0.3,17.2,1.3,25.8L752.1,517.9z"/>
<path class="st0" d="M834.6,390.7l0.5-0.2c-12.1-5.6-24.8-4.2-36.6,2.9l37.9,45.6C836.6,410.6,834.6,391,834.6,390.7z"/>
<path class="st0" d="M820.3,560c-2.6,8.3-5.7,16.4-9.2,24.3l52.3-31l0.1,0.8c3.7-7.1,6.4-14.6,8.2-22.4c0.7-3.1,1.3-6.1,1.8-9.2
	l-52.4,35C820.8,558.3,820.6,559.2,820.3,560z"/>
<path class="st0" d="M836.3,441.1l-38.7-46.7l0.3-0.7c-8.9,5.5-17.2,14.1-24.5,25.4l61,60.7C835.6,465.9,836.2,452.8,836.3,441.1z"
	/>
<path class="st0" d="M820.4,556.2c3.4-11.1,6.1-22.4,8.3-33.9L756.7,456c-1.4,4.5-2.6,9.1-3.7,13.9c-1.5,6.9-2.3,13.9-2.5,21
	L820.4,556.2L820.4,556.2z"/>
<path class="st0" d="M894.4,627.9c-7.7,9-16.5,18.9-26.4,28.9l53.4-11l-0.2,0.7c4-9.2,6.6-18.8,7.9-28.8l-0.2,0.7L894.4,627.9z"/>
<path class="st0" d="M925.8,589.3c-0.2-0.4-0.4-0.8-0.6-1.2c-1.8,2.7-12.5,18.2-29.5,38.3l33.4-9.3
	C930.2,606.8,929.2,597.4,925.8,589.3z"/>
<path class="st0" d="M817,700.9c-2.5,1.7-4.9,3.4-7.3,5.1l62,6.4l-0.4,0.7c3.8-3.3,7.5-6.7,11-10.2l-65.3-1.7L817,700.9z"/>
<path class="st0" d="M838.7,684l62.6-3.5l-0.3,0.7c8-10.5,14.6-22,19.9-34.1l-54.4,11.2C857.2,667.7,847.9,676.2,838.7,684z"/>
<path class="st0" d="M818.4,699.9l64.8,1.7l-0.4,0.7c6.3-6.4,12.2-13.2,17.6-20.3l-63.5,3.5C830.8,690.6,824.6,695.4,818.4,699.9z"
	/>
<path class="st0" d="M741.3,736.4c0.4-0.5,0.9-1,1.3-1.5c13-2.9,25.7-7.3,37.6-13.2l-0.9-46.5c0.5-1.2,0.9-2.4,1.3-3.7l1,49.5
	c8.6-4.3,16.9-9,25-14.3l-11-86c0.4-0.3,0.9-0.5,1.4-0.8l11,85.9l0.1,0c9.7-6.4,19-13.4,28-20.8l-11.4-84.6c0.4-0.4,0.9-0.7,1.3-1.1
	l11.4,84.6c2-1.7,3.9-3.3,5.8-5l-10.4-85.7c0.4-0.4,0.9-0.8,1.3-1.2l10.4,85.8c7.9-6.9,15.2-13.9,21.8-20.5l-8.4-86.4l0.7-0.4
	c-2.4,0.8-4.8,1.6-7.2,2.6c4.3-5.6,8.2-11.5,11.5-17.7l-52.8,31.3c-3.3,7.3-7.2,14.5-11.4,21.3c-0.9,1-1.9,2-2.8,3l0.1,1.1
	c-0.4,0.6-0.8,1.2-1.2,1.8l-0.2-1.4c-0.5,0.6-1,1.2-1.6,1.8c6.2-8.9,11.6-18.3,16.1-28.2l-57.2-66.3c0.7,6.2,1.7,12.4,2.8,18.5
	c-5.4-7.7-11.8-14.7-19.1-20.7l0.5,0.5l-10.4,34.2c3.5,11.3,7.1,24.1,10.3,37.7l19-50.3c0.1,0.8,0.3,1.5,0.4,2.3l-19,50.1
	c2.9,12.8,5.2,25.2,6.8,37.2l23.8-42.6c0.2,0.6,0.4,1.2,0.6,1.7l-24,43.1c1,8,1.8,15.8,2.2,23.4l29.5-44c0.2,0.5,0.4,1.1,0.6,1.6
	l-29.9,44.5l-0.2-0.3c0.2,3,0.3,6,0.4,8.9L780,623c0.2,0.6,0.4,1.1,0.6,1.5L746.3,668c0,0.9,0,1.8,0,2.7c0.1,8.7-0.3,17.3-1.2,25.9
	l3.3-3.7c-0.6,1.4-1.1,2.8-1.7,4.2l-1.9,2.1c-0.1,1.3-0.3,2.6-0.5,3.8c-0.6,1.6-1.2,3.2-1.8,4.8c0.5-2.9,0.9-5.9,1.2-8.8l-74.9-45.4
	c21.6,47,59.6,90.7,62.1,93.5c1.6-3.5,3.1-7.1,4.4-10.8c0.4-0.1,0.9-0.1,1.3-0.2c-0.2,0.4-0.3,0.9-0.5,1.3c-0.2,0-0.5,0.1-0.7,0.1
	c0.2,0,0.4,0.1,0.6,0.1c-0.9,2.6-1.9,5.1-3,7.6c1.5-1.5,3.7-3.9,6.5-6.9c17.2,3.3,63.4,9.9,101.7-6l-60.6-9.6
	C768.1,728.9,754.9,733.5,741.3,736.4z M779,658.2l1.4-1.5l0,2.2l-1.4,1.5L779,658.2z"/>
<path class="st0" d="M924.5,587.4l0.5,0.1c-5.8-12-16.4-19-30-21.1l0,59.3C913.3,604,924.3,587.7,924.5,587.4z"/>
<path class="st0" d="M805.5,708.7c-7.3,4.7-14.8,9-22.5,12.9L843,731l-0.4,0.7c7.3-3.1,14.3-7.2,20.6-12c2.5-1.9,4.9-3.9,7.3-5.9
	l-62.7-6.5C807,707.7,806.2,708.2,805.5,708.7z"/>
<path class="st0" d="M867.6,655.9c9.7-9.9,18.5-19.6,26.1-28.5l0-60.7l0.7-0.4c-10.3-1.5-22.3-0.1-35,3.9L867.6,655.9z"/>
<path class="st0" d="M735.1,517.2c-8.1-6.4-16.6-10.6-25.2-12c-0.5-0.1-0.9-0.1-1.3-0.2c1.3,3,8.7,20.3,16.5,45.4L735.1,517.2z"/>
<path class="st0" d="M735.4,591.8L658,552.6l0-0.8c-2.3,9.1-3.6,18.4-4.1,27.8l87.1,41.5C739.5,610.8,737.5,600.9,735.4,591.8z"/>
<path class="st0" d="M741.3,622.9l-87.5-41.7l0-0.8c-0.1,3.3-0.2,6.7-0.1,10.1l0-0.8l88.7,40.7C742.1,628,741.7,625.4,741.3,622.9z"
	/>
<path class="st0" d="M745.3,668.7l-86-40.3c2.5,8.2,5.6,16.3,9.2,24.2l0.1-0.9l75.5,45.7C745,687.9,745.4,678.3,745.3,668.7z"/>
<path class="st1" d="M707.6,505.2l0.4-0.4c-13.2-1.6-24.8,3.7-33.9,14l50.1,31.7C715.7,523.5,707.7,505.5,707.6,505.2z"/>
<path class="st0" d="M724.8,552.6l-51.3-32.4l0.1-0.8c-6.7,7.9-12,18.7-15.4,31.7l76.8,38.8C731.9,576.4,728.3,563.8,724.8,552.6z"
	/>
<path class="st0" d="M745.2,667c-0.2-11.6-1.1-23.2-2.6-34.8l-88.9-40.8c0.1,4.7,0.4,9.5,0.8,14.4c0.7,7,2.1,14,4.1,20.7L745.2,667
	L745.2,667z"/>
<path class="st2" d="M672.8,461l-258.1-32.5c-11.7-97.3,6-192.3,36.2-286.8L709,174.2C670,266.9,658.6,362.5,672.8,461z"/>
<rect x="556.2" y="114.9" transform="matrix(0.1251 -0.9921 0.9921 0.1251 301.2282 730.3752)" class="st3" width="17.1" height="159"/>
<rect x="552.6" y="123.1" transform="matrix(0.1251 -0.9921 0.9921 0.1251 258.1861 754.3973)" class="st4" width="8.5" height="215.5"/>
<rect x="549.1" y="150.4" transform="matrix(0.1251 -0.9921 0.9921 0.1251 228.0069 774.925)" class="st4" width="8.5" height="215.5"/>
<rect x="545.7" y="177.8" transform="matrix(0.1251 -0.9921 0.9921 0.1251 197.8276 795.4529)" class="st4" width="8.5" height="215.5"/>
<rect x="542.2" y="205.2" transform="matrix(0.1251 -0.9921 0.9921 0.1251 167.6483 815.9807)" class="st4" width="8.5" height="215.5"/>
<rect x="538.8" y="232.6" transform="matrix(0.1251 -0.9921 0.9921 0.1251 137.469 836.5085)" class="st5" width="8.5" height="215.5"/>
<rect x="535.3" y="259.9" transform="matrix(0.1251 -0.9921 0.9921 0.1251 107.2897 857.0363)" class="st5" width="8.5" height="215.5"/>
<rect x="531.8" y="287.3" transform="matrix(0.1251 -0.9921 0.9921 0.1251 77.1105 877.5641)" class="st5" width="8.5" height="215.5"/>
<path class="st6" d="M550.6,365.1l-241.5-96.8C322.4,171.2,363.6,83.8,416.7,0l241.5,96.8C597,176.6,561.7,266.3,550.6,365.1z"/>
<rect x="504.9" y="0.4" transform="matrix(0.372 -0.9282 0.9282 0.372 248.3155 526.7494)" class="st7" width="17.1" height="159"/>
<rect x="492.3" y="5.3" transform="matrix(0.372 -0.9282 0.9282 0.372 206.8839 531.9689)" class="st4" width="8.5" height="215.5"/>
<rect x="482.1" y="31" transform="matrix(0.372 -0.9282 0.9282 0.372 176.6652 538.5231)" class="st4" width="8.5" height="215.5"/>
<rect x="471.8" y="56.6" transform="matrix(0.372 -0.9282 0.9282 0.372 146.4465 545.0772)" class="st4" width="8.5" height="215.5"/>
<rect x="461.5" y="82.2" transform="matrix(0.372 -0.9282 0.9282 0.372 116.2278 551.6314)" class="st4" width="8.5" height="215.5"/>
<rect x="451.3" y="107.8" transform="matrix(0.372 -0.9282 0.9282 0.372 86.0091 558.1856)" class="st4" width="8.5" height="215.5"/>
<rect x="441" y="133.4" transform="matrix(0.372 -0.9282 0.9282 0.372 55.7904 564.7398)" class="st4" width="8.5" height="215.5"/>
<rect x="430.7" y="159" transform="matrix(0.372 -0.9282 0.9282 0.372 25.5717 571.2939)" class="st4" width="8.5" height="215.5"/>
<path class="st2" d="M490.9,388.4H230.7c-23.8-95.1-18.1-191.5,0-289.1h260.2C463.8,196.2,464.4,292.5,490.9,388.4z"/>
<rect x="270.8" y="128.9" class="st7" width="159" height="17.1"/>
<rect x="239.3" y="170.3" class="st4" width="215.5" height="8.5"/>
<rect x="239.3" y="197.9" class="st4" width="215.5" height="8.5"/>
<rect x="239.3" y="225.5" class="st4" width="215.5" height="8.5"/>
<rect x="239.3" y="253.1" class="st4" width="215.5" height="8.5"/>
<rect x="239.3" y="280.7" class="st4" width="215.5" height="8.5"/>
<rect x="239.3" y="308.3" class="st4" width="215.5" height="8.5"/>
<rect x="239.3" y="335.8" class="st5" width="215.5" height="8.5"/>
<path class="st8" d="M315.5,330.7L225.9,261c-1.8-3.2-5.2-5.1-8.9-5.1h-48.4c-5.7,0-10.2,4.6-10.2,10.2l0,0v426.9
	c0,18.3,14.9,33.2,33.2,33.2h496.6c18.3,0,33.2-14.9,33.2-33.2V360.9c0-16.7-13.5-30.2-30.2-30.2H315.5z"/>
<rect x="614.4" y="429.7" class="st9" width="90.1" height="31.5"/>
<path class="st10" d="M0,791.1c0,0,411.9-235.6,909.4,0"/>
<path class="st11" d="M88.2,250.5c0,0,4.4,23.4,1.3,25.2c-2.5,1.6-4.9,3.3-7.1,5.3l8,11.1l19,4l18.1-16.8v-16.8
	c0,0-5.3-8.4-4.4-13.7S88.2,250.5,88.2,250.5z"/>
<path class="st12" d="M88.2,250.5c0,0,4.4,23.4,1.3,25.2c-2.5,1.6-4.9,3.3-7.1,5.3l8,11.1l19,4l18.1-16.8v-16.8
	c0,0-5.3-8.4-4.4-13.7S88.2,250.5,88.2,250.5z"/>
<path class="st7" d="M57.7,290.7l-2.7,1.3c0,0-5.7,2.2-8.4,21.2s-8.8,64.5-7.1,65.9s0.9,10.2,0.9,10.2l13.3-69.4L57.7,290.7z"/>
<path class="st13" d="M89.2,182.8c-0.4,0.8-0.5,1.8-0.9,2.7c-1.7,3.9-6.6,3-10.2,4.5c-3,1.3-5.2,4.7-5.5,8.4c-0.1,1.6,0.1,3.2,0,4.7
	c-0.3,2.9-1.8,5.5-2.3,8.3c-1.3,6.9,1.7,17.9,5.1,14.1c1.1-1.2,2.4-2,3.6-3c3-2.8,4.6-7.1,7-10.6c0.3-0.5,0.7-0.9,1.2-1.2
	c1.8-0.9,3.4,1.5,4.8,3.1c2.8,3.1,7.6,3.3,10.6,0.5c0.2-0.2,0.5-0.4,0.7-0.7c0.4-0.6,1-1.2,1.6-1.6c0.7-0.3,1.5-0.4,2.2-0.2
	c3.5,0.6,6.6,2.5,8.8,5.3c1.2,1.4,2.2,3.1,3.6,4.3c1.4,1.1,3.5,1.5,4.8,0.2c2.6,1.8,3.5,5.7,3.5,9.2s-0.7,7-0.5,10.5
	s1.6,7.3,4.3,8.6c0.4-3.2,2.1-6.1,4.6-8.1c1.9-1.4,4.2-2.1,5.8-4c3.2-3.7,2.2-9.8,2.3-15.1c0.2-6.5,2.4-12.7,2.8-19.2
	c0.2-3.2-0.1-6.7-1.8-9.3c-1.3-1.7-2.9-3.1-4.8-4.2l-15.2-9.7c-0.7-0.5-1.4-0.9-2.2-1.1c-2.2-0.4-4.2,1.7-6.3,2.6
	c-1.8,0.6-3.6,0.9-5.5,0.7c-5.9-0.2-7.5,1-11.5-2.9c-0.6-0.6-1.5-0.9-2.4-0.8C95.1,179,90.5,180.1,89.2,182.8z"/>
<polygon class="st11" points="97.5,716.9 106.8,737.3 88.7,743.4 79.4,738.6 81.6,716.9 "/>
<path class="st14" d="M89.1,734.2c0,0-14.6-8.8-17.2-5.7S48,754.1,48,754.1s-32.7,17.7-7.5,20.3s66.3-15.5,66.3-15.5
	s2.2-23.9,0.4-24.3s-9.3,4-12.8,2.7C92.5,736.6,90.7,735.5,89.1,734.2z"/>
<polygon class="st11" points="121.4,738.6 121.4,756.7 97.5,751.4 102.8,732.8 "/>
<path class="st14" d="M97.1,744.8c0,0,24.3-4,26.5,8s8,29.6,2.2,34s-35.4,10.2-35.8,2.7s3.1-22.1,3.1-22.1s2.2-11.5,0.9-14.6
	S97.1,744.8,97.1,744.8z"/>
<path class="st8" d="M48.5,446.2c0,0-20,126.6-3.6,188.5s27.9,98.6,27.9,98.6s28.3-8,28.3-13.3S90,636,87.3,628.5
	s-7.1-10.2-3.1-16.4s10.6-46,10.6-46s14.6,65.9,15.5,67.6s-9.3,103-9.3,103s29.2,21.2,30.9,5.3c0.4-4,19.9-145,19.9-146.8
	s8-137.1-4.9-143.7S48.5,446.2,48.5,446.2z"/>
<circle class="st15" cx="105.5" cy="229.3" r="30.1"/>
<path class="st0" d="M98.8,288.9v-3.1L90,271.3c0,0-8.8,0.9-10.2,4.9s-16.4,35.8-16.4,35.8L47.6,454.7c0,0,43.8,10.6,50.4,3.1
	s31.8-171.1,31.8-171.1l3.5-19.9c0,0-6.1-8.8-7.5-7.5s-24.4,27-24.4,27l-0.4,4L98.8,288.9z"/>
<path class="st7" d="M89.8,268.4c0,0-8.2-2-10.8,2.9s-2.7,6.6-5.3,8.4s-18.1,9.7-19,12.8S34.7,393.3,34.7,393.3s-9.3,29.2-4.9,49.1
	s1.3,23.9,10.6,25.6s10.6,1.8,10.6-0.9s11.9-92.4,20.3-98.6s6.2-73.8,6.2-73.8s11.9-14.6,11.9-16.8S91.5,268.2,89.8,268.4z"/>
<path class="st7" d="M114.8,284.5c1.2,0.2,18.1-21.7,19.5-20.8s8,12.4,8.8,12.4s38.5,9.3,41.6,26.5s-21.7,72.1-21.7,72.1
	s-10.6,31.4-8.4,45.1c1.5,10.4,1.2,21.1-0.9,31.4c-0.9,3.5-4,7.5-3.1,9.3s-19.5-2.2-27.9,2.7c-8.4,4.9-46,8.4-43.8,3.1
	s3.5-26.1,9.7-48.2s22.1-74.3,19.5-77.8S112.1,284.1,114.8,284.5z"/>
<path class="st7" d="M179.3,297.3l5.7,5.3c0,0,6.6,11.5,5.7,16.8s18.6,85.3,10.6,88s-27,15.9-29.2,19.5s-7.5,9.7-11.1,11.5
	s-7.1,4.9-9.3,3.1s-7.1-38-3.5-39.3s7.1-5.3,10.6-5.3s5.7-3.5,5.7-6.6s-2.7-21.7-2.7-21.7l-5.7-43.8L179.3,297.3z"/>
<path class="st13" d="M94.5,187.2c-0.4,0.6-0.5,1.4-0.8,2c-1.5,3-5.9,2.3-9,3.4c-2.7,1-4.6,3.5-4.8,6.3c-0.1,1.2,0.1,2.4,0,3.6
	c-0.2,2.2-1.6,4.1-2,6.3c-1.1,5.2,1.5,13.5,4.5,10.7c1-0.9,2.1-1.5,3.2-2.3c2.7-2.1,4-5.4,6.2-8c0.3-0.4,0.7-0.7,1.1-0.9
	c1.6-0.7,3,1.1,4.2,2.3c2.9,2.5,7.2,2.4,10-0.2c0.4-0.5,0.9-0.9,1.4-1.2c0.6-0.2,1.3-0.3,2-0.2c3,0.4,5.7,1.8,7.8,4
	c0.9,1.2,2,2.3,3.2,3.2c1.3,0.8,3.1,1.1,4.2,0.1c2.3,1.4,3.1,4.3,3.1,6.9s-0.6,5.3-0.5,7.9s1.4,5.5,3.8,6.5c0.5-2.5,1.9-4.7,4.1-6.1
	c1.7-1.1,3.7-1.6,5.1-3c2.8-2.8,1.9-7.4,2.1-11.4c0.1-4.9,2.1-9.6,2.5-14.5c0.2-2.5-0.1-5.1-1.6-7c-1.2-1.3-2.6-2.4-4.3-3.1
	l-13.4-7.4c-0.6-0.4-1.3-0.7-2-0.8c-2-0.3-3.7,1.3-5.6,2c-1.6,0.5-3.2,0.6-4.9,0.5c-5.2-0.1-6.7,0.7-10.2-2.2
	c-0.6-0.5-1.4-0.7-2.1-0.6C99.7,184.4,95.6,185.2,94.5,187.2z"/>
</svg>
