<svg id="a3277a8a-60ff-4d5e-bfbb-16df02d5717d" xmlns="http://www.w3.org/2000/svg" viewBox="0 0 1030.57 697"><defs><style>.cls-1{fill:#fef4af;}.cls-2{fill:none;stroke:#3f3d56;stroke-miterlimit:10;}.cls-3,.cls-6{fill:#f6bdbe;}.cls-4{fill:#fbbebe;}.cls-5{fill:#3f3d56;}.cls-12,.cls-13,.cls-6{opacity:0.1;isolation:isolate;}.cls-7{fill:#65617d;}.cls-8{fill:#6345ea;}.cls-9{fill:#be6f72;}.cls-10{fill:#f28b3c;}.cls-11{fill:#55536e;}.cls-13,.cls-14{fill:#3b3745;}</style></defs><title>undraw_i_can_fly_7egl</title><path class="cls-1" d="M747,162.47A60.64,60.64,0,0,1,807.54,105c1.84,0,3.66.1,5.46.26a80.57,80.57,0,0,1,139.28-.07c1.52-.11,3.05-.19,4.6-.19a60.64,60.64,0,0,1,60.56,57.48" transform="translate(0 0.02)"/><path class="cls-2" d="M759.61,157.8a60.63,60.63,0,0,1,60.56-57.47c1.84,0,3.66.09,5.46.25a80.58,80.58,0,0,1,139.29-.06c1.52-.12,3.05-.19,4.59-.19a60.64,60.64,0,0,1,60.57,57.47" transform="translate(0 0.02)"/><path class="cls-1" d="M71,504.23C76.48,398.25,164.13,314,271.47,314c6.1,0,12.12.32,18.09.86,74-127.34,237.24-170.57,364.58-96.55a266.77,266.77,0,0,1,96.42,96.33c5-.38,10.09-.64,15.21-.64,107.34,0,195,84.26,200.45,190.24" transform="translate(0 0.02)"/><path class="cls-2" d="M112.83,488.79c5.46-106,93.11-190.24,200.45-190.24,6.1,0,12.12.32,18.08.86,74-127.34,237.25-170.57,364.58-96.55a266.69,266.69,0,0,1,96.42,96.33c5-.38,10.09-.64,15.22-.64,107.34,0,195,84.26,200.45,190.24" transform="translate(0 0.02)"/><path class="cls-1" d="M0,138.47A82,82,0,0,1,81.94,60.7c2.5,0,5,.13,7.4.35A109,109,0,0,1,277.8,61c2.05-.16,4.12-.26,6.22-.26A82,82,0,0,1,366,138.47" transform="translate(0 0.02)"/><path class="cls-2" d="M17.09,132.15A82,82,0,0,1,99,54.39c2.5,0,5,.13,7.4.34a109,109,0,0,1,188.46-.08c2.05-.16,4.12-.26,6.22-.26a82,82,0,0,1,81.94,77.76" transform="translate(0 0.02)"/><path class="cls-3" d="M411,235.66s14,34-7,42c0,0,30,13,37,10s12-10,12-12-7-3-7-3-13,1-3-32Z" transform="translate(0 0.02)"/><circle class="cls-4" cx="427.03" cy="228.68" r="25"/><ellipse class="cls-5" cx="410.53" cy="223.18" rx="22" ry="31"/><ellipse class="cls-5" cx="394.53" cy="213.18" rx="22" ry="31"/><ellipse class="cls-5" cx="372.53" cy="190.68" rx="11" ry="15.5"/><path class="cls-4" d="M452,271.66s6-12,28-18,65-78,65-78-2-43,8-30,2,39,2,39l-25.81,44.57a97.09,97.09,0,0,1-17.87,22.43c-16,14.85-44.46,41-47.32,41C460,292.66,452,271.66,452,271.66Z" transform="translate(0 0.02)"/><path class="cls-4" d="M417,442.66s7,85,5,93-8,24,2,71-2,44-2,44l32,14s-11-54-9-69,1-46,7-67,7-80,7-80Z" transform="translate(0 0.02)"/><path class="cls-6" d="M417,442.66s7,85,5,93-8,24,2,71-2,44-2,44l32,14s-11-54-9-69,1-46,7-67,7-80,7-80Z" transform="translate(0 0.02)"/><path class="cls-7" d="M452.78,653.84c-2.48,1.72-8.85,3.47-20.75-9.18,0,0-7-10-13,0s-2,11,2,16c3.86,4.83,34.74,37.61,47.67,36.28a6.7,6.7,0,0,0,1.33-.28c12-4-5-17-5-17s-11.15-17.15-11.21-25.24a.67.67,0,0,0-.65-.69A.66.66,0,0,0,452.78,653.84Z" transform="translate(0 0.02)"/><path class="cls-4" d="M393,432.66s-17,39-24,59c-3.68,10.5-14.8,13.83-24.53,14.63a83.93,83.93,0,0,0-34.27,10.33c-14,7.86-33.09,16.77-45.2,15-21-3-4,30-4,30s31-19,60-21,60-5,74-23,48-75,48-75Z" transform="translate(0 0.02)"/><path class="cls-7" d="M262,556.66s-10-7-2-14,11-13,11-13-14-15-19-7-27,44-22,55,10,14,16,2,21.13-21.45,21.13-21.45Z" transform="translate(0 0.02)"/><path class="cls-8" d="M448,276.66s-3.33,6.65-34.22.25a19,19,0,0,0-20.91,9.75c-3.87,7.75-4.37,19,9.13,33,0,0,24,27,12,38s57-7,57-7-9-6-1-24c6.28-14.14,5.78-22.11.91-28.27a31,31,0,0,1-5.84-13.05c-1.37-6.7-4.74-15.09-13.07-15.68,0,0-8.76-.51-9.38,1.74S450,275.66,448,276.66Z" transform="translate(0 0.02)"/><path class="cls-4" d="M411.46,297.87c-.2-1.41-.46-2.81-.63-4.22-.61-4.83-2.9-16.53-10.84-14.52-10,2.53-21,27.53-21,27.53s-9,28-22,35-49,43-49,43-30,8-19,16,25-5,25-5l35.36-21.22a101.26,101.26,0,0,0,31.2-29.33C388,334.44,397.18,322.1,403,318a19.3,19.3,0,0,0,7.56-9.88A22.82,22.82,0,0,0,411.46,297.87Z" transform="translate(0 0.02)"/><path class="cls-8" d="M420,355.66s-46-6-72,25-45,22-43,27,98,64,154,57c34.09-4.26,52.24-8.15,61.23-10.54a17.49,17.49,0,0,0,9.64-6.47,17.64,17.64,0,0,1,4.88-4.43,8.66,8.66,0,0,0,2.48-12,1.88,1.88,0,0,0-.16-.23c-15.86-22.95-58.91-83.73-71.07-85.35C451,343.66,420,355.66,420,355.66Z" transform="translate(0 0.02)"/><ellipse class="cls-5" cx="427.53" cy="201.68" rx="16" ry="11.5"/><path class="cls-9" d="M746.84,99.19A114.43,114.43,0,0,1,751,83.63c1.81-4.94,4.1-9.15,6.64-9.15,6.18,0-21.62-26.26-21.62-26.26s-1.74,3.24-4.63,7.61a108.54,108.54,0,0,1-6.92,9.42A51.71,51.71,0,0,1,712.86,76C700.51,83.74,746.84,99.19,746.84,99.19Z" transform="translate(0 0.02)"/><path class="cls-9" d="M828.64,201.57s61.94,39.14,42.85,45.57-50.7-39.55-50.7-39.55Z" transform="translate(0 0.02)"/><path class="cls-10" d="M745.56,112.69s29.67,21.63,38.34,38.08,53.74,53,53.74,53-9.31,18.39-13.81,17.28-97.25-70.11-107-75.7S721.94,105.27,745.56,112.69Z" transform="translate(0 0.02)"/><path class="cls-9" d="M833.34,151.7s69.5,23.17,52.51,34-58.69-26.25-58.69-26.25Z" transform="translate(0 0.02)"/><path class="cls-11" d="M788.54,468.33s29.35-12.35,26.26,6.18-17,35.53-17,44.79S771.55,548.65,766.92,544s7.72-23.16,4.63-34-6.17-35.53-6.17-35.53Z" transform="translate(0 0.02)"/><path class="cls-12" d="M788.54,468.33s29.35-12.35,26.26,6.18-17,35.53-17,44.79S771.55,548.65,766.92,544s7.72-23.16,4.63-34-6.17-35.53-6.17-35.53Z" transform="translate(0 0.02)"/><path class="cls-7" d="M779.28,482.23s29.34-12.35,26.25,6.18-17,35.53-17,44.79-26.25,29.35-30.89,24.72,7.73-23.17,4.64-34-6.18-35.53-6.18-35.53Z" transform="translate(0 0.02)"/><path class="cls-5" d="M711.32,369.48s91.13,86.5,88,94.22-23.17,24.71-23.17,24.71S706.68,397.28,711.32,369.48Z" transform="translate(0 0.02)"/><path class="cls-13" d="M711.32,369.48s91.13,86.5,88,94.22-23.17,24.71-23.17,24.71S706.68,397.28,711.32,369.48Z" transform="translate(0 0.02)"/><path class="cls-14" d="M689.69,213.48s23.17,23.17,17,68,4.64,88,17,101.94S787,477.6,787,477.6s-21.62,35.52-38.61,17-68-94.22-68-94.22-46.34-91.12-51-115.84-6.18-63.32,6.18-71S689.69,213.48,689.69,213.48Z" transform="translate(0 0.02)"/><path class="cls-12" d="M728,60.71c18,3.74,16.25,4.47,27.34,8.36.06-.19.12-.34.18-.49,1.7-4,2.77,1.26,5.22,1.26,6.18,0-21.62-26.26-21.62-26.26s-1,2-2.86,4.87c-.54.85-1.13,1.78-1.77,2.75-.54.82-1.13,1.68-1.75,2.58Z" transform="translate(0 0.02)"/><circle class="cls-9" cx="760.74" cy="52.87" r="29.35"/><path class="cls-10" d="M706.68,74.48s44.8,4.63,54.06,24.71S703.6,216.57,699,218.12s-69.5,9.26-69.5,9.26,3.09-98.85,63.32-135.91C692.78,91.47,706.68,85.29,706.68,74.48Z" transform="translate(0 0.02)"/><path class="cls-10" d="M731.4,85.29s34,13.9,46.33,27.8S842.6,151.7,842.6,151.7s-4.63,20.08-9.26,20.08S722.13,127,711.32,123.9,706.68,83.74,731.4,85.29Z" transform="translate(0 0.02)"/><path class="cls-5" d="M758.43,56.71s7.72-7.72-7.73-13.9c0,0,15.45-6.18,18.54-15.44s13.9-24.72,23.17,0,26.25,57.15-29.35,57.15c0,0-13.9,3.08-13.9-9.27A23.17,23.17,0,0,1,758.43,56.71Z" transform="translate(0 0.02)"/></svg>